<svg width="171" height="47" viewBox="0 0 171 47" fill="none" xmlns="http://www.w3.org/2000/svg">
<path d="M7.32422 37H3.57422V8.5625H7.32422V37ZM33.2617 11.6484H24.1211V37H20.3906V11.6484H11.2695V8.5625H33.2617V11.6484ZM45.5469 24.3242C42.3307 23.3997 39.987 22.2669 38.5156 20.9258C37.0573 19.5716 36.3281 17.9049 36.3281 15.9258C36.3281 13.6862 37.2201 11.8372 39.0039 10.3789C40.8008 8.90755 43.1315 8.17188 45.9961 8.17188C47.9492 8.17188 49.6875 8.54948 51.2109 9.30469C52.7474 10.0599 53.9323 11.1016 54.7656 12.4297C55.612 13.7578 56.0352 15.2096 56.0352 16.7852H52.2656C52.2656 15.0664 51.7188 13.7188 50.625 12.7422C49.5312 11.7526 47.9883 11.2578 45.9961 11.2578C44.1471 11.2578 42.7018 11.668 41.6602 12.4883C40.6315 13.2956 40.1172 14.4219 40.1172 15.8672C40.1172 17.026 40.6055 18.0091 41.582 18.8164C42.5716 19.6107 44.2448 20.3398 46.6016 21.0039C48.9714 21.668 50.8203 22.4036 52.1484 23.2109C53.4896 24.0052 54.4792 24.9362 55.1172 26.0039C55.7682 27.0716 56.0938 28.3281 56.0938 29.7734C56.0938 32.0781 55.1953 33.9271 53.3984 35.3203C51.6016 36.7005 49.1992 37.3906 46.1914 37.3906C44.2383 37.3906 42.4154 37.0195 40.7227 36.2773C39.0299 35.5221 37.7214 34.4935 36.7969 33.1914C35.8854 31.8893 35.4297 30.4115 35.4297 28.7578H39.1992C39.1992 30.4766 39.8307 31.8372 41.0938 32.8398C42.3698 33.8294 44.069 34.3242 46.1914 34.3242C48.1706 34.3242 49.6875 33.9206 50.7422 33.1133C51.7969 32.306 52.3242 31.2057 52.3242 29.8125C52.3242 28.4193 51.8359 27.3451 50.8594 26.5898C49.8828 25.8216 48.112 25.0664 45.5469 24.3242ZM60.918 37V8.5625H68.9453C71.4193 8.5625 73.6068 9.10938 75.5078 10.2031C77.4089 11.2969 78.8737 12.8529 79.9023 14.8711C80.944 16.8893 81.4714 19.207 81.4844 21.8242V23.6406C81.4844 26.3229 80.9635 28.6732 79.9219 30.6914C78.8932 32.7096 77.4154 34.2591 75.4883 35.3398C73.5742 36.4206 71.3411 36.974 68.7891 37H60.918ZM64.668 11.6484V33.9336H68.6133C71.5039 33.9336 73.75 33.0352 75.3516 31.2383C76.9661 29.4414 77.7734 26.8828 77.7734 23.5625V21.9023C77.7734 18.6732 77.0117 16.1667 75.4883 14.3828C73.9779 12.5859 71.8294 11.6745 69.043 11.6484H64.668ZM109.043 23.6992C109.043 26.4857 108.574 28.9206 107.637 31.0039C106.699 33.0742 105.371 34.6562 103.652 35.75C101.934 36.8438 99.9284 37.3906 97.6367 37.3906C95.3971 37.3906 93.4115 36.8438 91.6797 35.75C89.9479 34.6432 88.6003 33.0742 87.6367 31.043C86.6862 28.9987 86.1979 26.6354 86.1719 23.9531V21.9023C86.1719 19.168 86.6471 16.7526 87.5977 14.6562C88.5482 12.5599 89.8893 10.9583 91.6211 9.85156C93.3659 8.73177 95.3581 8.17188 97.5977 8.17188C99.8763 8.17188 101.882 8.72526 103.613 9.83203C105.358 10.9258 106.699 12.5208 107.637 14.6172C108.574 16.7005 109.043 19.1289 109.043 21.9023V23.6992ZM105.312 21.8633C105.312 18.4909 104.635 15.9062 103.281 14.1094C101.927 12.2995 100.033 11.3945 97.5977 11.3945C95.2279 11.3945 93.3594 12.2995 91.9922 14.1094C90.638 15.9062 89.9414 18.4062 89.9023 21.6094V23.6992C89.9023 26.9674 90.5859 29.5391 91.9531 31.4141C93.3333 33.276 95.2279 34.207 97.6367 34.207C100.059 34.207 101.934 33.3281 103.262 31.5703C104.59 29.7995 105.273 27.2669 105.312 23.9727V21.8633ZM136.523 37H132.754L118.438 15.0859V37H114.668V8.5625H118.438L132.793 30.5742V8.5625H136.523V37ZM159.258 23.8555H146.934V33.9336H161.25V37H143.184V8.5625H161.055V11.6484H146.934V20.7891H159.258V23.8555ZM169.395 28.9727H166.133L165.879 8.5625H169.668L169.395 28.9727ZM165.742 35.1836C165.742 34.5977 165.918 34.1094 166.27 33.7188C166.634 33.3151 167.168 33.1133 167.871 33.1133C168.574 33.1133 169.108 33.3151 169.473 33.7188C169.837 34.1094 170.02 34.5977 170.02 35.1836C170.02 35.7695 169.837 36.2578 169.473 36.6484C169.108 37.026 168.574 37.2148 167.871 37.2148C167.168 37.2148 166.634 37.026 166.27 36.6484C165.918 36.2578 165.742 35.7695 165.742 35.1836Z" fill="black"/>
<line x1="86.5283" y1="21.0216" x2="98.8815" y2="30.5645" stroke="#27AE60" stroke-width="5"/>
<line x1="95.9874" y1="31.517" x2="109.987" y2="12.517" stroke="#27AE60" stroke-width="5"/>
</svg>
